<svg width="320" height="122" fill="none" xmlns="http://www.w3.org/2000/svg"><path fill-rule="evenodd" clip-rule="evenodd" d="M15.78 121.09A15.87 15.87 0 0 1 0 105.3V16.69A15.87 15.87 0 0 1 15.78.91h288.44A15.87 15.87 0 0 1 320 16.7v88.62a15.87 15.87 0 0 1-15.78 15.78H15.78Z" fill="#015A75"/><path fill-rule="evenodd" clip-rule="evenodd" d="M15.78 3.38A13.4 13.4 0 0 0 2.46 16.69v88.62c.01 7.3 6.02 13.3 13.32 13.31h92.7V3.38h-92.7ZM234 83.58l1.98-2.77a7.5 7.5 0 0 0 5.44 2.3c2 0 2.98-.92 2.98-1.89 0-1.26-1.6-1.62-3.47-2.08-2.8-.64-6.39-1.4-6.39-5.31 0-2.85 2.47-5.21 6.5-5.21 2.72 0 4.98.82 6.67 2.38l-2.03 2.68a7.37 7.37 0 0 0-4.98-1.87c-1.56 0-2.44.7-2.44 1.72 0 1.1 1.57 1.46 3.42 1.9 2.8.67 6.41 1.52 6.41 5.4 0 3.13-2.23 5.49-6.85 5.49-3.29-.04-5.65-1.12-7.24-2.74Zm-15.6 0 1.97-2.77a7.5 7.5 0 0 0 5.45 2.3c2 0 2.98-.92 2.98-1.89 0-1.26-1.6-1.62-3.47-2.08-2.8-.64-6.39-1.4-6.39-5.31 0-2.85 2.47-5.21 6.5-5.21 2.72 0 4.98.82 6.67 2.38l-2.02 2.68a7.37 7.37 0 0 0-4.98-1.87c-1.56 0-2.43.7-2.43 1.72 0 1.1 1.56 1.46 3.4 1.9 2.8.67 6.43 1.52 6.43 5.4 0 3.13-2.23 5.49-6.86 5.49-3.28-.04-5.64-1.12-7.25-2.74Zm-56.83 0 1.97-2.77a7.5 7.5 0 0 0 5.44 2.3c2 0 2.98-.92 2.98-1.89 0-1.26-1.59-1.62-3.46-2.08-2.8-.64-6.4-1.4-6.4-5.31 0-2.85 2.47-5.21 6.5-5.21 2.72 0 4.98.82 6.68 2.38l-2.03 2.68a7.35 7.35 0 0 0-4.98-1.87c-1.57 0-2.44.7-2.44 1.72 0 1.1 1.56 1.46 3.41 1.9 2.8.67 6.42 1.52 6.42 5.4 0 3.13-2.23 5.49-6.85 5.49-3.29-.04-5.65-1.12-7.24-2.74Zm-17.86-4.41v-10.3h3.73v10.17c0 2.39 1.4 4.03 4.03 4.03 2.63 0 4-1.64 4-4.03V68.87h3.74v10.27c0 4.26-2.52 7.16-7.73 7.16-5.2 0-7.77-2.92-7.77-7.13ZM197.34 86l-8.16-11.17V86h-3.65V68.87h3.73l7.94 10.74V68.87h3.65V86h-3.5Zm-19.02 0V68.87h3.64V86h-3.64Zm26.1 0V68.87h12.15v3.21h-8.5v3.62h8.3v3.2h-8.3v3.88h8.47v3.2l-12.11.02Zm-77.89 0V68.87h9.01c3.27 0 4.93 2.08 4.93 4.37 0 2.15-1.34 3.6-2.95 3.92 1.82.28 3.27 2.06 3.27 4.2 0 2.57-1.72 4.63-4.98 4.63h-9.28Zm10.55-5.14c0-1.08-.77-2-2.2-2h-4.7v3.98h4.7c1.37 0 2.2-.76 2.2-1.98Zm-.33-7a1.88 1.88 0 0 0-2-1.87h-4.57v3.73h4.57c1.22 0 2-.76 2-1.84v-.02Zm6.7-25.83c0-5.26 3.98-8.87 9.11-8.87a7.85 7.85 0 0 1 7.16 4.2l-3.13 1.54a4.64 4.64 0 0 0-4-2.5c-3.1 0-5.37 2.39-5.37 5.6 0 3.22 2.26 5.6 5.37 5.6a4.6 4.6 0 0 0 4.02-2.48l3.12 1.55a7.88 7.88 0 0 1-7.16 4.2c-5.12 0-9.12-3.57-9.12-8.84Zm17.82 0c0-5.26 3.98-8.87 9.11-8.87a7.85 7.85 0 0 1 7.16 4.2l-3.13 1.54a4.64 4.64 0 0 0-4.03-2.5c-3.1 0-5.36 2.39-5.36 5.6 0 3.22 2.26 5.6 5.36 5.6a4.6 4.6 0 0 0 4.03-2.48l3.13 1.51a7.88 7.88 0 0 1-7.16 4.2c-5.13.04-9.11-3.53-9.11-8.8Zm28.32 8.55-3.37-6.06h-2.66v6.06h-3.65V39.46h8.01c3.57 0 5.75 2.34 5.75 5.52 0 3.03-1.9 4.67-3.73 5.08l3.85 6.54-4.2-.02Zm-51.25 0-1.05-2.9h-7.35l-1.07 2.9h-4.17l6.63-17.12h4.57l6.6 17.12h-4.16Zm129.5 0V39.46h6.76c5.36 0 9.09 3.41 9.09 8.58 0 5.16-3.74 8.54-9.1 8.54h-6.74Zm-15.14 0V39.46h12.14v3.2h-8.5v3.63h8.29v3.2h-8.29v3.88h8.48v3.2l-12.12.01Zm-22.33 0V39.46H234v17.12h-3.64Zm-18.62 0V39.46h6.75c5.36 0 9.09 3.41 9.09 8.58 0 5.16-3.74 8.54-9.1 8.54h-6.74Zm-15.15 0V39.46h12.14v3.2h-8.5v3.63h8.3v3.2h-8.3v3.88h8.48v3.2l-12.12.01Zm44.93 0V42.67h-5v-3.2h13.65v3.2h-4.98v13.91h-3.67ZM280 48.04c0-3.03-1.87-5.37-5.37-5.37h-3.1v10.7h3.1c3.37 0 5.35-2.43 5.35-5.34h.02Zm-56.1 0c0-3.03-1.87-5.37-5.37-5.37h-3.1v10.7h3.1c3.37 0 5.35-2.43 5.35-5.34h.02Zm-90.27-4.94-2.67 7.37h5.34l-2.67-7.37Zm56.31 1.88c0-1.44-1.1-2.31-2.57-2.31h-3.82v4.62h3.82c1.48 0 2.57-.87 2.57-2.31Z" fill="#fff"/><path fill-rule="evenodd" clip-rule="evenodd" d="M38.35 99.92c2.43 1.08 3.63 1.8 4.1 4.82.78 5.27-4.08 7.28-8.66 7.28H23.05V88.99h10.83c3.88 0 7.43 1.77 7.43 6.1 0 2.17-1.12 3.75-2.96 4.83Zm21.5 0c2.43 1.08 3.63 1.8 4.1 4.82.78 5.27-4.08 7.28-8.66 7.28H44.55V88.99h10.83c3.88 0 7.44 1.77 7.44 6.1 0 2.17-1.13 3.75-2.97 4.83Zm25.6 4.82c-.47-3.02-1.67-3.73-4.1-4.81 1.84-1.08 2.97-2.66 2.97-4.84 0-4.33-3.55-6.1-7.43-6.1H66.06v23.03h10.73c4.58 0 9.44-2 8.66-7.28Zm2.98 1.77v-.05c0-2.91 2.4-5.3 5.31-5.3 2.91 0 5.3 2.38 5.31 5.29v.04c0 2.91-2.4 5.31-5.3 5.31-2.92 0-5.3-2.39-5.32-5.3Zm10.14-.02v-.04a4.85 4.85 0 0 0-4.83-4.81 4.85 4.85 0 0 0-4.82 4.82v.05a4.85 4.85 0 0 0 4.82 4.8 4.85 4.85 0 0 0 4.83-4.82Zm-6.91-2.89h2.44c.6-.02 1.18.18 1.62.58.28.27.44.65.44 1.05v.03c0 .88-.59 1.4-1.41 1.6l1.69 2.18h-1L93.87 107h-1.4v2.05h-.8l-.01-5.44Zm-57.43 4.07h-6.3v-5.26h6.3c4.61 0 4.33 5.26 0 5.26Zm21.5 0h-6.27v-5.26h6.27c4.61 0 4.33 5.26 0 5.26Zm15.23-5.26v5.26h6.27c4.33 0 4.62-5.26 0-5.26h-6.27Zm23.06 3.86c.76 0 1.3-.35 1.3-.98v-.03c0-.57-.48-.93-1.26-.93h-1.6v1.93l1.56.01Zm-55.67-6.35Zm21.5 0ZM27.94 93.4h5.64c3.51 0 3.64 4.92.22 4.92h-5.86v-4.92Zm43.04 0h5.6c3.52 0 3.65 4.91.22 4.91h-5.84l.02-4.91Zm-21.52 0h5.63c3.51 0 3.64 4.9.22 4.9h-5.85v-4.9Zm-16.02-14.7H43.9l1.87 6.34h17.11l1.87-6.34h10.47l-1.37-4.67H34.81l-1.37 4.67Zm12.68-37.65-5.07 7c-2.55 3.51-1.76 9.72 1.72 12.23l9.4 6.8c1.62 1.16 1.75 2.32.98 3.54l1.37 1.02 4.77-6.6c2.94-4.08 2.69-9.63-1.68-12.81l-9.5-6.92c-1.13-.83-1.26-1.98-.63-3.27l-1.36-.97v-.02Zm8.14-30.9-7.9 10.93c-3.7 5.12-2.36 13.86 2.7 17.6l13 9.54c2.63 1.93 2.98 6.85 1.06 9.37l1.1.83 8.96-12.6c4.03-5.67 3.8-14.03-2.52-18.62l-13.9-10.1c-1.95-1.4-2.92-3.82-1.3-6.1l-1.2-.85Z" fill="#015A75"/></svg>