<svg version="1.1" id="Layer_1" xmlns="http://www.w3.org/2000/svg" x="0" y="0" viewBox="0 0 109.4 47" style="enable-background:new 0 0 109.4 47" xml:space="preserve">
  <style>
    .st0{fill:#f79c68}
  </style>
  <path class="st0" d="M33.7 7.5c-9.2-9.3-24-9.6-33.7-1v24.6c0 8.8 7.2 16 16 16h11.3c2.3-1.2 4.5-2.7 6.4-4.6 9.7-9.7 9.7-25.3 0-35z"/>
  <path d="M63.5 12.6 29.2 47h44.3c-2.2-1.2-4.3-2.6-6.1-4.5-8.1-8.1-9.4-20.4-3.9-29.9z" style="fill:#c8d465"/>
  <path class="st0" d="M102.2 7.5c-9.6-9.7-25.2-9.7-34.8 0-1.5 1.6-2.8 3.3-3.9 5.1-5.5 9.5-4.2 21.8 3.9 29.9 1.8 1.9 3.9 3.3 6.1 4.5h22.6c2.2-1.1 4.3-2.6 6.1-4.5 9.6-9.7 9.6-25.3 0-35z"/>
</svg>
