<svg xmlns="http://www.w3.org/2000/svg" width="566" height="134"><defs><linearGradient id="a" gradientUnits="userSpaceOnUse" x1="282.8" y1="0" x2="282.8" y2="133.9"><stop offset="0" stop-color="#FFF"/><stop offset="1" stop-color="#F0F0F0"/></linearGradient><linearGradient id="b" gradientUnits="userSpaceOnUse" x1="67.6" y1="50.3" x2="67.6" y2="124.7"><stop offset="0" stop-color="#89C13D"/><stop offset="1" stop-color="#9AD304"/></linearGradient><linearGradient id="c" gradientUnits="userSpaceOnUse" x1="67.6" y1="9.6" x2="67.6" y2="74.8"><stop offset="0" stop-color="#93CC45"/><stop offset="1" stop-color="#B2D455"/></linearGradient></defs><path d="M0 0h565.6v134H0z" fill="url(#a)"/><path d="M0 0h565.6v134H0z" stroke="#BDBCBD" stroke-width="2.9" fill="none"/><path d="M67.1 74.8C40 74.8 17 65.2 10 52.1v72.6h115.2V50.3c-5.7 14-29.5 24.5-58 24.5z" fill="url(#b)"/><path d="M10 9.6V52C17 65.2 39.9 74.8 67 74.8c28.6 0 52.4-10.5 58-24.5V9.6H10z" fill="url(#c)"/><g fill="#FFF"><path d="M72.4 73.4a4.7 4.7 0 1 0-6.6 4.4V81h-2.7v3.3h9V81h-2.7v-3.2c1.8-.7 3-2.4 3-4.4z"/><path d="M89.8 32.1c-14.4.2-20.3-4.4-22.2-6.5-2 2.1-7.8 6.7-22.3 6.5H33a1805 1805 0 0 0 3.8 56.5s6.9 11.3 30.8 22.3c23.9-11 30.7-22.3 30.7-22.3 1.5-15.4 3-42.2 3.8-56.5H89.8zm-2.7 57h-39V63.4h5.7v-7.3a13.9 13.9 0 0 1 27.7 0v7.3H87v25.7z"/><path d="M67.6 47.1c-5 0-9 4-9 9v7.3h18v-7.3c0-5-4-9-9-9z"/></g><g fill="#565F6B"><path d="m166 80-6.9-.1-8.2-29.2h6.5a383 383 0 0 1 5.4 22.8c.7-3 1.6-6.6 2.8-10.4l3.5-12.2h6.3L166 80zM193.9 62.6l-.1 5.4h-9.9v6.7l11 .2-.1 5.4-17-.2.4-29 16.4.1v5.4H184v6h9.9zM198.8 80.3l.4-28.6c2.1-.5 4.8-.6 8-.6 3.8 0 6.6.8 8.3 2.3 1.7 1.5 2.5 3.5 2.5 6.2 0 1.7-.5 3.1-1.3 4.4a7 7 0 0 1-3.4 2.7v.2c1.6.7 2.7 2.5 3.4 5.4l2 8.3h-6c-.5-1.2-1-3.4-1.7-6.9a8 8 0 0 0-1.4-3.6c-.6-.7-1.6-1-3-1l-1.8-.1-.1 11.4h-5.9zm6.2-24-.1 7.9h2.4a5 5 0 0 0 3.5-1c.9-.8 1.3-1.8 1.3-3.1s-.3-2.3-1.1-3c-.8-.7-1.8-1-3.3-1l-2.7.1zM222.4 51.5l5.9.1-.4 29.1H222l.4-29.2zM233 80.8l.4-29.1 16.3.2-.1 5.4-10.4-.1v6.6l9.6.1v5.4l-9.7-.1-.1 11.6h-6zM254.1 52h6l-.4 29h-6l.4-29zM280.8 63.7V69l-10-.1v6.8l11 .1v5.4l-17-.2.3-29 16.4.1v5.5l-10.5-.1v6h9.8zM285.8 81.3l.3-28.6a49 49 0 0 1 8.2-.6c5.5.1 9.4 1.4 11.7 4 2.4 2.7 3.6 6.1 3.5 10.3 0 5-1.5 8.8-4.2 11.4-2.8 2.7-7 4-12.6 4-2.6 0-5-.2-7-.5zm6.2-23.8-.2 19 2 .1c3 0 5.3-.8 7-2.5 1.6-1.8 2.4-4.3 2.4-7.5 0-3-.6-5.3-2-6.9-1.5-1.6-3.6-2.4-6.4-2.4-1.2 0-2.1 0-2.8.2zM344.9 82H338l-1.7-2.1c-2 1.7-4.5 2.5-7.3 2.5-2.9 0-5.1-.9-6.7-2.5a7.9 7.9 0 0 1-2.4-5.9c0-3.6 1.7-6.4 5.1-8.3v-.2a8.8 8.8 0 0 1-2-5.5c.1-2.1.9-4 2.3-5.4a7.5 7.5 0 0 1 5.8-2.2c2 0 3.8.6 5 2 1.4 1.2 2 2.8 2 4.9 0 3-1.8 5.5-5.2 7.4l4.2 5.5c1.1-1.9 2-4.3 2.4-7h5.3c-.8 4.8-2.3 8.5-4.5 11l4.6 5.9zm-17.2-13a5 5 0 0 0-2.2 4c0 1.3.4 2.3 1.2 3.2.8.9 1.8 1.3 3.2 1.4 1.4 0 2.6-.5 3.6-1.5-1.2-1.4-3.2-3.8-5.8-7.2zm2.5-5.4c1-.8 1.8-1.5 2.2-2a3.7 3.7 0 0 0 .1-4.2 2 2 0 0 0-1.6-.9c-.8 0-1.3.3-1.8.8-.4.6-.7 1.3-.7 2.1 0 1.4.6 2.7 1.8 4.2zM354.6 80.8l1.3-5.4c2.2 1.3 4.4 2 6.7 2a5 5 0 0 0 3-.9c.8-.5 1.2-1.3 1.2-2.3 0-.8-.3-1.6-1-2.2-.6-.6-1.8-1.2-3.4-1.8-4.9-2-7.3-4.9-7.2-8.8 0-2.5 1-4.6 2.7-6.3 1.9-1.6 4.3-2.4 7.3-2.3 2.6 0 4.9.5 6.8 1.6l-1.4 5.2c-1.8-1-3.6-1.4-5.6-1.4-1.2 0-2 .2-2.8.7-.7.5-1 1.2-1 2s.3 1.4.8 2c.6.5 2 1.2 4 2.1 2.4 1 4.2 2.2 5.2 3.6 1.1 1.4 1.7 3.2 1.6 5.3 0 2.7-1 4.8-2.8 6.5a11.2 11.2 0 0 1-7.8 2.4 15 15 0 0 1-7.6-2zM392.8 65v5.4l-10-.1V77l11 .1v5.5l-17-.2.4-29.1 16.4.2-.1 5.4L383 59v6l9.8.1zM416.6 76.9l.8 5.2c-1.7.9-4 1.3-6.9 1.2-4.3 0-7.7-1.4-10.1-4a15 15 0 0 1-3.6-10.7c0-4.7 1.4-8.4 4.2-11.2 2.7-2.8 6.2-4.1 10.4-4 2.9 0 5.1.4 6.7 1.3l-1.3 5.3c-1.6-.8-3.3-1.2-5.2-1.2a8 8 0 0 0-6.2 2.4 10 10 0 0 0-2.4 7c0 3 .7 5.3 2.2 7a8 8 0 0 0 6.2 2.6c2 0 3.7-.3 5.2-.9zM421.8 54h5.9l-.2 16.5c0 2.5.3 4.4 1.2 5.8a4 4 0 0 0 3.6 2c3.3 0 5-2.5 5-7.7l.2-16.5h6l-.2 16.2c0 4.4-1 7.7-3 10-2 2.2-4.7 3.3-8.3 3.3-7 0-10.5-4.6-10.4-13.6l.2-16zM448.2 83.3l.4-28.7c2.1-.4 4.8-.6 8-.5 3.8 0 6.6.8 8.3 2.3 1.7 1.4 2.5 3.5 2.5 6.2 0 1.6-.5 3-1.3 4.4a7 7 0 0 1-3.4 2.7v.2c1.6.7 2.7 2.4 3.4 5.3l2 8.4-6-.1c-.5-1-1-3.4-1.7-6.8-.4-1.7-.8-3-1.4-3.7-.6-.6-1.6-1-3-1h-1.8l-.1 11.4h-5.9zm6.2-24.1-.1 8h2.4a5 5 0 0 0 3.5-1.1c.9-.7 1.3-1.8 1.3-3 0-1.3-.3-2.3-1.1-3-.8-.7-1.8-1-3.3-1.1-1.3 0-2.3 0-2.7.2zM487.4 66.1v5.4h-10v6.7l11 .2v5.4l-17-.2.4-29 16.4.1v5.4h-10.6v6h9.8zM492.4 83.7l.3-28.6a49 49 0 0 1 8.2-.5c5.5 0 9.4 1.4 11.8 4 2.3 2.7 3.5 6 3.4 10.3 0 4.9-1.4 8.7-4.2 11.4-2.7 2.7-7 4-12.6 4-2.6-.1-5-.3-6.9-.6zm6.2-23.7-.2 19h2.1c3 .1 5.2-.7 6.9-2.5 1.6-1.7 2.4-4.2 2.5-7.5 0-3-.7-5.2-2.2-6.8-1.4-1.6-3.5-2.4-6.3-2.5-1.1 0-2 .1-2.8.3z"/></g><path d="m227 112-5-12.8h2l3.2 9.3.7 2 .7-2 3.4-9.3h1.7l-5 12.8H227zM235.7 112V99.2h9.3v1.5h-7.6v4h7v1.4h-7v4.4h7.9v1.5h-9.6zM248 112V99.2h5.7c1.1 0 2 .2 2.6.4.6.2 1 .6 1.4 1.2.4.6.5 1.2.5 2s-.2 1.6-.8 2.2c-.6.6-1.5 1-2.7 1.2l1 .6c.5.5 1 1 1.4 1.7l2.2 3.5h-2.1l-1.7-2.7-1.2-1.7-.9-.9-.8-.3h-2.9v5.6h-1.6zm1.7-7.1h3.7c.7 0 1.3-.1 1.8-.3.4-.1.7-.4 1-.7l.3-1.2c0-.6-.2-1-.7-1.5-.4-.4-1-.5-2-.5h-4v4.2zM261.6 112V99.2h1.7V112h-1.7zM266.8 112V99.2h8.6v1.5h-6.9v4h6v1.5h-6v5.8h-1.7zM281.6 112v-5.4l-4.9-7.4h2l2.6 3.9 1.3 2.1 1.4-2.2 2.5-3.8h2l-5.2 7.4v5.4h-1.7zM294.9 107.9l1.6-.1c0 .6.2 1.1.5 1.5.3.4.7.8 1.3 1 .6.3 1.2.4 2 .4.6 0 1.1-.1 1.6-.3.5-.2.9-.4 1.1-.8.3-.3.4-.7.4-1 0-.5-.1-.8-.4-1.1-.2-.3-.6-.6-1.1-.8l-2.3-.6c-1.1-.3-2-.5-2.4-.8-.6-.3-1-.7-1.4-1.2-.3-.4-.4-1-.4-1.6 0-.6.1-1.2.5-1.8.4-.5 1-1 1.6-1.2a6 6 0 0 1 2.3-.5c1 0 1.8.2 2.5.5a3.6 3.6 0 0 1 2.3 3.3l-1.6.2c0-.9-.4-1.5-.9-1.9-.5-.4-1.2-.6-2.2-.6-1 0-1.7.2-2.2.6-.5.3-.7.8-.7 1.3s.2.9.5 1.2c.3.3 1.2.6 2.5.9 1.4.3 2.3.5 2.8.8.8.3 1.3.8 1.7 1.3a3.5 3.5 0 0 1 0 3.7c-.4.6-1 1-1.7 1.4a7.3 7.3 0 0 1-5.4 0 4 4 0 0 1-1.8-1.5c-.5-.7-.7-1.5-.7-2.3zM307.8 112V99.2h9.2v1.5h-7.5v4h7v1.4h-7v4.4h7.8v1.5h-9.5zM329.2 107.5l1.7.4c-.4 1.4-1 2.5-2 3.2-.8.7-2 1.1-3.3 1.1a6 6 0 0 1-3.4-.8 5.2 5.2 0 0 1-2-2.5 8.7 8.7 0 0 1 .2-6.9c.5-1 1.2-1.7 2.1-2.2 1-.5 2-.8 3.1-.8 1.3 0 2.4.3 3.2 1a5 5 0 0 1 1.9 2.7l-1.7.4a4 4 0 0 0-1.3-2c-.5-.4-1.3-.6-2.1-.6-1 0-1.8.2-2.5.7-.6.4-1 1-1.4 1.9-.2.8-.4 1.6-.4 2.4 0 1.1.2 2 .5 2.8.3.9.8 1.5 1.5 1.9.7.4 1.4.6 2.2.6 1 0 1.7-.3 2.4-.9.6-.5 1-1.3 1.3-2.4zM341.8 99.2h1.7v7.4c0 1.3-.2 2.3-.5 3-.3.8-.8 1.4-1.6 1.9-.7.5-1.7.7-3 .7-1.1 0-2.1-.2-2.9-.6-.7-.4-1.3-1-1.6-1.8-.3-.8-.5-1.8-.5-3.2v-7.4h1.7v7.4c0 1.1.1 2 .3 2.4.2.6.6 1 1 1.3.6.2 1.2.4 2 .4 1.2 0 2-.3 2.6-.9.5-.5.8-1.6.8-3.2v-7.4zM346.7 112V99.2h5.7c1.1 0 2 .2 2.6.4.6.2 1 .6 1.4 1.2.4.6.5 1.2.5 2s-.3 1.6-.9 2.2c-.5.6-1.4 1-2.7 1.2l1 .6 1.5 1.7 2.2 3.5h-2.2l-1.6-2.7a24 24 0 0 0-1.3-1.7l-.8-.9-.8-.3h-2.9v5.6h-1.7zm1.7-7.1h3.6c.8 0 1.4-.1 1.9-.3a2 2 0 0 0 1-.7 2 2 0 0 0-.4-2.7c-.4-.4-1.1-.5-2-.5h-4v4.2zM360.3 112V99.2h1.7V112h-1.7zM368.7 112v-11.3h-4.2v-1.5h10v1.5h-4.2V112h-1.6zM380.3 112v-5.4l-4.9-7.4h2l2.6 3.9 1.3 2.1 1.4-2.2 2.4-3.8h2l-5 7.4v5.4h-1.8zM394.2 112V99.2h1.7v5.3h6.6v-5.3h1.7V112h-1.7v-6h-6.6v6h-1.7zM407.5 112V99.2h9.2v1.5h-7.5v4h7v1.4h-7v4.4h7.8v1.5h-9.5zM419.8 112V99.2h5.6c1.2 0 2 .2 2.6.4.6.2 1 .6 1.4 1.2.4.6.6 1.2.6 2s-.3 1.6-.9 2.2c-.6.6-1.5 1-2.7 1.2l1 .6c.5.5 1 1 1.4 1.7l2.2 3.5H429l-1.7-2.7a24 24 0 0 0-1.2-1.7l-.9-.9-.7-.3h-3v5.6h-1.6zm1.7-7.1h3.6c.8 0 1.4-.1 1.8-.3.4-.1.8-.4 1-.7l.3-1.2c0-.6-.2-1-.6-1.5-.5-.4-1.1-.5-2-.5h-4.1v4.2zM433.1 112V99.2h9.2v1.5h-7.5v4h7v1.4h-7v4.4h7.8v1.5h-9.5z"/><g fill="#8EC200"><path d="M275.7 27.9v9.9c-2.3.7-4.4 1-6.5 1-3.5 0-6.2-.8-8-2.5a9 9 0 0 1-2.6-6.8c0-3 1-5.3 3-7.1 2-1.8 4.7-2.7 8-2.7 2.3 0 4.1.3 5.5 1l-1 3.4c-1.2-.6-2.8-.9-4.6-.9-2 0-3.5.6-4.6 1.6a5.7 5.7 0 0 0-1.8 4.5 6 6 0 0 0 1.7 4.4 6.1 6.1 0 0 0 4.5 1.7c1 0 1.8 0 2.2-.3v-3.9h-3V28h7.2zM297 29.1c0 3-1 5.4-2.7 7.2a9.2 9.2 0 0 1-6.9 2.7c-2.7 0-5-1-6.7-2.7a9.6 9.6 0 0 1-2.5-6.9c0-2.8.9-5.2 2.7-7a9 9 0 0 1 6.8-2.8c2.8 0 5 .9 6.7 2.7 1.7 1.8 2.5 4 2.5 6.8zm-14.2.2c0 1.9.4 3.4 1.3 4.5.9 1.2 2 1.8 3.4 1.8 1.5 0 2.7-.6 3.5-1.8a7.4 7.4 0 0 0 1.4-4.5c0-1.9-.5-3.4-1.4-4.5-.8-1.2-2-1.8-3.4-1.8-1.5 0-2.6.6-3.5 1.8a7.4 7.4 0 0 0-1.3 4.5zM299.8 38.6V20.2c1.9-.3 3.8-.5 6-.5 4 0 6.8.9 8.6 2.6a8.7 8.7 0 0 1 2.6 6.5c0 3.2-1 5.7-3 7.4-2 1.8-5 2.7-9.2 2.7-1.9 0-3.5-.1-5-.3zm4.3-15.4v12.2l1.6.1c2.1 0 3.8-.5 5-1.7 1.1-1 1.7-2.7 1.7-4.8 0-2-.5-3.4-1.6-4.4-1-1-2.6-1.5-4.6-1.5l-2 .1zM328 33.8h-5.7l-1.4 4.9h-4.5l6-18.8h5.6l6.1 18.8h-4.7l-1.5-5zm-5-3.2h4.2l-2.2-7.5-1 3.5-1 4zM336.6 38.6V20.2c1.9-.3 3.9-.5 6-.5 4 0 6.9.9 8.6 2.6a8.7 8.7 0 0 1 2.6 6.5c0 3.2-1 5.7-3 7.4-2 1.8-5 2.7-9.1 2.7-2 0-3.6-.1-5-.3zm4.4-15.4v12.2l1.5.1c2.2 0 3.8-.5 5-1.7 1.2-1 1.7-2.7 1.7-4.8 0-2-.5-3.4-1.6-4.4-1-1-2.6-1.5-4.6-1.5l-2 .1zM356.7 38.6V20.2c1.8-.3 3.8-.5 6-.5 4 0 6.8.9 8.5 2.6a8.7 8.7 0 0 1 2.6 6.5c0 3.2-1 5.7-3 7.4-2 1.8-5 2.7-9 2.7-2 0-3.7-.1-5.1-.3zm4.3-15.4v12.2l1.5.1c2.2 0 3.8-.5 5-1.7 1.2-1 1.8-2.7 1.8-4.8 0-2-.6-3.4-1.6-4.4-1.1-1-2.6-1.5-4.7-1.5l-2 .1zM384.4 38.7h-4.3v-7.8l-6-11h4.9l3.5 8 3.5-8h4.9l-6.5 10.9v7.9zM391.9 28.7c0-2.9 1-5.4 3-7.4s4.5-3 7.4-3c2.9 0 5.3 1 7.3 3s3 4.5 3 7.4c0 2.9-1 5.4-3 7.4s-4.4 3-7.3 3a10 10 0 0 1-7.4-3c-2-2-3-4.5-3-7.4zm18.3 0c0-2.3-.8-4.3-2.3-6a7.4 7.4 0 0 0-5.6-2.4 8.3 8.3 0 0 0-8 8.4c0 2.3.8 4.3 2.4 6a7.5 7.5 0 0 0 5.6 2.4c2.2 0 4-.8 5.6-2.5a8.3 8.3 0 0 0 2.3-5.9zm-9.7 1.3v4.7H398V23.2c1.4-.3 2.7-.4 3.7-.4 1.8 0 3 .3 3.8.8.8.5 1.3 1.4 1.3 2.7 0 1.3-.8 2.2-2.3 2.7 1 .2 1.7 1.2 1.9 2.9.1 1.3.4 2.2.6 2.8h-2.5c-.2-.2-.5-1.2-.7-3-.2-1.1-1-1.7-2.2-1.7h-1.1zm0-5.3v3.4h1.2c1.7 0 2.5-.6 2.5-1.7s-.8-1.7-2.4-1.7h-1.3z"/></g></svg>