<svg version="1.1" id="Layer_1" xmlns="http://www.w3.org/2000/svg" x="0" y="0" viewBox="0 0 114 113" style="enable-background:new 0 0 114 113" xml:space="preserve">
  <style>
    .st0{fill:#f79c68}.st1{fill:#c8d465}
  </style>
  <path class="st0" d="M77.1 35.5c9.6 9.7 25.2 9.7 34.8 0 .8-.8 1.4-1.6 2.1-2.4V16c0-8.8-7.2-16-16-16H77.6c-.2.2-.4.3-.6.5-9.5 9.7-9.5 25.3.1 35z"/>
  <path class="st1" d="M77.1 35.5c-8-8-20.1-9.4-29.4-4.1L5.9 72l.1.1c.5-.6.9-1.1 1.5-1.6 9.6-9.7 25.2-9.7 34.8 0s9.6 25.3 0 35l38.9-40.4c5.2-9.5 3.9-21.6-4.1-29.6z"/>
  <path class="st0" d="M42.3 70.5c-9.6-9.7-25.2-9.7-34.8 0-.5.5-1 1.1-1.5 1.6-8.1 9.7-7.6 24.2 1.5 33.4 9.1 9.1 23.5 9.6 33.2 1.5.6-.5 1.1-.9 1.6-1.5 9.6-9.7 9.6-25.3 0-35zM7.1 2.1C-1 11.9-.5 26.4 8.6 35.5s23.5 9.6 33.2 1.5c.6-.5 1.1-.9 1.6-1.5 9.6-9.7 9.6-25.3 0-35-.2-.2-.4-.3-.5-.5H9.1c-.2.2-.4.3-.5.5-.6.5-1 1.1-1.5 1.6z"/>
  <path class="st1" d="M43.4.5c9.6 9.7 9.6 25.3 0 35L77.6 0H42.9c.1.2.3.3.5.5zM110.9 70.5c1.2 1.2 2.2 2.4 3.1 3.8V33.7L76.9 69.8c9.6-8.9 24.7-8.7 34 .7z"/>
  <path class="st0" d="M76.1 70.5c-.5.5-1 1.1-1.5 1.6-8.1 9.7-7.6 24.2 1.5 33.4 9.1 9.1 23.5 9.6 33.2 1.5.6-.5 1.1-.9 1.6-1.5 1.2-1.2 2.2-2.4 3.1-3.8V74.3c-.9-1.3-1.9-2.6-3.1-3.8-9.6-9.7-25.2-9.7-34.8 0z"/>
</svg>
